# xmcd
#
# Track frame offsets:
#	150
#	16742
#	34082
#	50675
#	63025
#	74597
#	89375
#	104025
#	114525
#	126830
#	139785
#	150822
#	164387
#	173612
#	184262
#	200500
#	216137
#	229602
#	240552
#	255217
#
# Disc length: 3615
#
# Revision: 2
# Processed by: cddbd v1.5.1PL0 Copyright (c) Steve Scherf et al.
# Submitted via: dBpowerAMP V4.0
# Normalized: r0:TSWAP
#
DISCID=0b0e1d14
DTITLE=Various Artist - History Of Country Music - Country Love Classics
DYEAR=1900
DGENRE=Country
TTITLE0=Johnny Lee - Lookin' For Love
TTITLE1=Eddie Rabbitt - A World Without Love
TTITLE2=Alabama - Jukebox In My Mind
TTITLE3=Hank Williams - Cold, Cold Heart
TTITLE4=Eddy Arnold - I'll Hold You In My Heart (Till I Can Hold You In My Arms)
TTITLE5=Keith Whitley - I Wonder Do You Think Of Me
TTITLE6=Razzy Bailey - She Left Love All Over Me
TTITLE7=Jim Reeves - He'll Have To Go
TTITLE8=Hank Williams Sr. - Your Cheatin' Heart
TTITLE9=Michael Martin Murphy - What's Forever For
TTITLE10=Buck Owens - Together Again
TTITLE11=Sylvia - Fallin' In Love
TTITLE12=Charley Pride - Kiss An Angel Good Mornin'
TTITLE13=Dolly Parton - Love Is Like A Butterfly
TTITLE14=Vince Gill - Cinderella
TTITLE15=Billy "Crash" Craddock - If I Could Write A Song As Beautiful As You Are
TTITLE16=Razzy Bailey - Loving Up A Storm
TTITLE17=Waylon Jennings - Dreaming My Dreams With You
TTITLE18=Willie Nelson - Sweet Memories
TTITLE19=Conway Twitty - The Rose
EXTD=
EXTT0=
EXTT1=
EXTT2=
EXTT3=
EXTT4=
EXTT5=
EXTT6=
EXTT7=
EXTT8=
EXTT9=
EXTT10=
EXTT11=
EXTT12=
EXTT13=
EXTT14=
EXTT15=
EXTT16=
EXTT17=
EXTT18=
EXTT19=
PLAYORDER=
